<?xml version="1.0" standalone="no"?>
<!DOCTYPE svg PUBLIC "-//W3C//DTD SVG 20010904//EN"
 "http://www.w3.org/TR/2001/REC-SVG-20010904/DTD/svg10.dtd">
<svg version="1.0" xmlns="http://www.w3.org/2000/svg"
 width="100.000000pt" height="100.000000pt" viewBox="0 0 100.000000 100.000000"
 preserveAspectRatio="xMidYMid meet">

<g transform="translate(0.000000,100.000000) scale(0.100000,-0.100000)"
fill="#000000" stroke="none">
<path d="M453 899 c-54 -9 -133 -45 -133 -60 0 -5 -5 -8 -12 -6 -22 4 -38 -48
-39 -128 0 -44 -5 -107 -10 -140 -21 -137 -21 -149 -1 -180 14 -23 65 -59 100
-71 1 0 -16 -19 -38 -42 l-39 -42 -12 43 c-18 67 -28 87 -43 87 -16 0 -26 -21
-26 -56 0 -16 -4 -22 -14 -18 -23 9 -46 -25 -46 -68 0 -32 6 -46 30 -68 17
-15 30 -31 30 -35 0 -4 9 -20 21 -36 15 -22 28 -29 53 -29 17 0 37 5 44 12 9
9 12 7 13 -12 1 -14 8 15 15 65 8 49 12 94 10 100 -2 5 -5 -2 -5 -16 -1 -14
-4 -28 -7 -31 -6 -6 -64 20 -64 28 0 13 61 92 75 98 34 13 74 6 85 -14 17 -33
81 -27 124 11 30 25 40 29 70 24 59 -12 105 -71 109 -143 2 -37 2 -37 -45 -46
-27 -5 -51 -6 -55 -2 -4 4 -10 28 -14 54 l-7 47 4 -50 c6 -86 16 -145 23 -145
3 0 5 18 3 40 -4 39 -3 40 27 42 17 0 37 1 44 2 7 1 15 -17 18 -44 l7 -45 -1
45 c0 25 3 52 7 59 11 17 -1 77 -25 122 -21 41 -54 69 -81 69 -10 0 -18 5 -18
10 0 6 4 10 9 10 5 0 23 11 40 26 17 14 36 24 43 23 55 -7 98 32 98 89 0 21
-4 42 -9 48 -6 5 -6 27 -1 54 25 124 -6 219 -85 269 -71 45 -183 65 -272 50z
m180 -159 c31 -9 37 -16 37 -38 1 -15 7 -38 15 -52 8 -14 14 -52 15 -89 0 -62
1 -64 19 -47 12 11 31 16 53 14 31 -3 33 -6 36 -42 4 -52 -27 -86 -78 -86 -26
0 -43 -7 -60 -25 -31 -33 -136 -65 -211 -65 -71 0 -155 34 -188 76 -18 23 -22
37 -17 69 3 22 11 87 18 145 7 58 17 111 22 118 20 33 69 43 186 38 63 -2 132
-10 153 -16z m-379 -460 c10 -38 14 -74 11 -80 -3 -5 -2 -10 2 -10 5 0 17 -12
27 -27 9 -16 15 -20 12 -10 -5 15 -2 16 14 7 27 -15 25 -52 -4 -79 -30 -29
-63 -24 -89 11 -17 23 -19 32 -10 50 22 45 24 80 7 128 -16 46 -15 80 4 80 5
0 17 -31 26 -70z m287 9 c-26 -22 -82 -23 -88 -2 -3 8 13 13 49 16 29 2 55 4
58 5 3 1 -6 -8 -19 -19z m-324 -36 c3 -7 -4 -10 -19 -7 -18 3 -17 2 5 -7 15
-6 27 -15 27 -20 0 -5 -12 -10 -27 -10 -24 -2 -25 -2 -5 -6 26 -5 30 -23 5
-24 -16 0 -16 -1 1 -8 26 -10 3 -25 -24 -16 -28 9 -36 55 -21 113 2 9 55 -5
58 -15z"/>
<path d="M307 653 c-15 -14 -5 -18 43 -19 50 0 65 8 34 20 -21 8 -69 8 -77 -1z"/>
<path d="M507 623 c-15 -14 -5 -18 48 -18 55 0 70 7 39 19 -21 8 -79 8 -87 -1z"/>
<path d="M320 568 c-33 -10 -34 -11 -12 -19 12 -5 22 -16 22 -24 0 -11 7 -15
23 -13 12 2 22 10 22 18 0 8 5 18 10 23 6 4 4 11 -5 17 -17 11 -14 11 -60 -2z"/>
<path d="M511 537 c-9 -11 0 -14 49 -14 49 0 58 3 49 14 -6 7 -28 13 -49 13
-21 0 -43 -6 -49 -13z"/>
<path d="M405 479 c-4 -6 -5 -12 -2 -15 2 -3 7 2 10 11 7 17 1 20 -8 4z"/>
<path d="M486 414 c-16 -9 -43 -14 -62 -12 -18 2 -30 0 -28 -4 10 -16 82 -8
105 12 29 23 24 25 -15 4z"/>
<path d="M396 159 c3 -6 0 -15 -7 -20 -10 -6 -8 -8 8 -6 17 1 20 5 12 19 -5
10 -12 18 -15 18 -3 0 -2 -5 2 -11z"/>
<path d="M547 150 c-16 -19 -16 -20 2 -20 14 0 19 6 18 20 -1 11 -2 20 -2 20
0 0 -8 -9 -18 -20z"/>
<path d="M437 146 c-5 -13 1 -16 33 -16 31 0 38 3 34 15 -7 18 -44 20 -44 3 0
-10 -2 -10 -9 0 -7 11 -9 11 -14 -2z"/>
</g>
</svg>
